Coordinates
version=1
nRows=11
nColumns=40
inDegrees=yes

Units are S.I. units (second, meters, Newtons, ...)
If the header above contains a line with 'inDegrees', this indicates whether rotational values are in degrees (yes) or radians (no).

endheader
time	pelvis_tilt	pelvis_list	pelvis_rotation	pelvis_tx	pelvis_ty	pelvis_tz	hip_flexion_r	hip_adduction_r	hip_rotation_r	knee_angle_r	knee_angle_r_beta	ankle_angle_r	subtalar_angle_r	mtp_angle_r	hip_flexion_l	hip_adduction_l	hip_rotation_l	knee_angle_l	knee_angle_l_beta	ankle_angle_l	subtalar_angle_l	mtp_angle_l	lumbar_extension	lumbar_bending	lumbar_rotation	arm_flex_r	arm_add_r	arm_rot_r	elbow_flex_r	pro_sup_r	wrist_flex_r	wrist_dev_r	arm_flex_l	arm_add_l	arm_rot_l	elbow_flex_l	pro_sup_l	wrist_flex_l	wrist_dev_l
      3.90000000	      1.39656495	     -0.65418969	      0.43596266	      0.06914141	      1.31655031	     -0.00268743	     57.69846204	      0.76313549	     -0.32217140	     82.42703486	      1.43862315	      5.25428388	    -13.92963822	      0.00000000	     32.79940893	    -10.36943888	    -11.65514956	     74.58434718	      1.30174243	     -5.78365439	    -14.94446630	      0.00000000	    -56.83064288	     -4.57857678	      0.45702106	     56.10819461	     12.69568735	    -37.96206742	     37.37752904	     73.45749481	      0.00000000	      0.00000000	     59.62266843	     14.27421423	    -40.24689076	     35.17940796	      3.90001725	      0.00000000	      0.00000000
      3.91700000	      1.37664318	      0.33869680	      0.69894857	      0.06915117	      1.31686832	     -0.00270184	     55.13752810	     -0.05513790	      0.31362572	     77.64739340	      1.35520267	      4.50994564	    -13.67934043	      0.00000000	     34.49641447	     -9.76132066	    -11.76853053	     78.78595175	      1.37507426	     -4.76886456	    -14.56800454	      0.00000000	    -56.81592097	     -5.03265400	     -0.50737693	     55.84379726	     12.73987121	    -37.81716263	     37.56350208	     72.82727822	      0.00000000	      0.00000000	     59.51891198	     14.16197295	    -40.19300198	     35.16608126	      5.54962748	      0.00000000	      0.00000000
      3.93300000	      1.69892386	      0.84375227	      1.39441047	      0.06918828	      1.31751654	     -0.00318887	     51.78205277	     -1.00972020	     -0.12157243	     72.41755421	      1.26392476	      2.61067648	    -14.20734408	      0.00000000	     36.13346082	     -9.42124033	    -11.16043956	     83.27666974	      1.45345208	     -2.53266765	    -13.64408457	      0.00000000	    -57.12568999	     -4.79698542	     -1.17987709	     55.92037420	     12.78535972	    -38.47176457	     37.52214833	     73.46320898	      0.00000000	      0.00000000	     59.60943661	     14.26229898	    -39.82752426	     34.91099570	      3.83843715	      0.00000000	      0.00000000
      3.95000000	      1.63452911	      1.78069122	      1.96845528	      0.06917241	      1.31771064	     -0.00369883	     48.76471947	     -2.13208693	     -0.04269820	     67.40737711	      1.17648067	      0.89936422	    -13.98395720	      0.00000000	     38.22141052	     -8.69184485	    -10.95045125	     87.44514940	      1.52620577	     -0.92278786	    -13.31337037	      0.00000000	    -57.11272305	     -4.97268612	     -2.18414861	     55.75769103	     12.78753708	    -38.73341194	     37.60942753	     73.34338372	      0.00000000	      0.00000000	     59.60752929	     14.33680516	    -39.81222340	     34.74980307	      4.17085423	      0.00000000	      0.00000000
      3.96700000	      1.53637933	      2.45647244	      2.77202206	      0.06899429	      1.31789534	     -0.00455058	     45.58215702	     -3.22151253	     -0.46223153	     62.55328053	      1.09176070	     -0.91858512	    -13.96692532	      0.00000000	     40.63786903	     -8.09873149	    -10.28993150	     91.52215070	      1.59736287	      0.81741076	    -12.25281249	      0.00000000	    -57.09449286	     -4.79416759	     -3.06630528	     55.62491225	     12.82580634	    -39.17088734	     37.71719220	     73.26862402	      0.00000000	      0.00000000	     59.64733308	     14.41790122	    -39.76556644	     34.55684563	      4.34918967	      0.00000000	      0.00000000
      3.98300000	      1.31054481	      3.14678415	      3.59576848	      0.06879988	      1.31792879	     -0.00534839	     42.37162527	     -4.24645273	     -0.92400022	     57.80421517	      1.00887388	     -2.80948338	    -13.96307178	      0.00000000	     43.33586847	     -7.48896826	     -9.60725940	     95.38678681	      1.66481349	      2.51285708	    -10.98610087	      0.00000000	    -56.97294553	     -4.64719702	     -3.95480728	     55.42284476	     12.86090043	    -39.60929800	     37.87742598	     73.23901823	      0.00000000	      0.00000000	     59.68066245	     14.50924639	    -39.63204328	     34.31990195	      4.40942351	      0.00000000	      0.00000000
      4.00000000	      1.14121731	      3.46186479	      4.74773297	      0.06851419	      1.31789894	     -0.00644131	     39.19560998	     -5.05413795	     -1.96098617	     53.61447461	      0.93574911	     -4.53874807	    -14.47285448	      0.00000000	     46.21284485	     -6.97659414	     -8.49174685	     98.84644114	      1.72519585	      3.76635220	     -9.50293961	      0.00000000	    -56.84773643	     -4.02437837	     -4.65759694	     55.19078398	     12.80931490	    -40.06873049	     38.05302154	     73.36790439	      0.00000000	      0.00000000	     59.70971908	     14.61983196	    -39.38330507	     34.06303365	      4.16645649	      0.00000000	      0.00000000
      4.01700000	      0.93315086	      3.82480194	      5.80842521	      0.06803888	      1.31779345	     -0.00770572	     36.40385434	     -5.69586679	     -2.71224168	     50.35562026	      0.87887137	     -6.20942515	    -15.21892129	      0.00000000	     49.20714716	     -6.38212057	     -7.74471941	    101.73034210	      1.77552942	      4.27982149	     -9.15993794	      0.00000000	    -56.65280067	     -3.53380990	     -5.27277676	     54.85637649	     12.57201808	    -40.19359920	     38.29136913	     73.50892246	      0.00000000	      0.00000000	     59.68211557	     14.83795003	    -39.17282749	     33.80209008	      4.02320742	      0.00000000	      0.00000000
      4.03300000	      0.73558921	      4.03193333	      6.98710308	      0.06742206	      1.31762938	     -0.00910576	     33.81282767	     -6.13022595	     -3.50069448	     47.82134221	      0.83463987	     -7.81327110	    -16.16224914	      0.00000000	     52.34048283	     -5.76696206	     -6.97644942	    104.15354071	      1.81782221	      4.37003407	     -9.39146186	      0.00000000	    -56.43151085	     -2.87474321	     -5.81192559	     54.45132292	     12.24721058	    -40.17987737	     38.56058263	     73.61190934	      0.00000000	      0.00000000	     59.66829191	     15.06360645	    -38.99686500	     33.55549057	      3.93578943	      0.00000000	      0.00000000
      4.05000000	      0.54825738	      4.12729849	      8.09520658	      0.06679151	      1.31733195	     -0.01041926	     31.52838640	     -6.35642066	     -4.28620179	     45.92265126	      0.80150147	     -9.12323323	    -17.24350336	      0.00000000	     55.40351626	     -5.15779787	     -6.30532181	    105.99106228	      1.84989301	      4.11722601	     -9.97466475	      0.00000000	    -56.18508473	     -2.18522878	     -6.26951873	     54.10827387	     11.96422719	    -40.09799677	     38.75277338	     73.71268176	      0.00000000	      0.00000000	     59.62056656	     15.29554422	    -38.81803480	     33.32245822	      3.85293950	      0.00000000	      0.00000000
      4.06700000	      0.38491162	      4.19923832	      9.02938582	      0.06610426	      1.31694931	     -0.01151101	     29.61294513	     -6.37666415	     -4.71789055	     44.73412486	      0.78075777	    -10.22804689	    -18.32419153	      0.00000000	     58.34827586	     -4.53564869	     -5.83035288	    107.24243155	      1.87173353	      3.52351772	    -11.06622944	      0.00000000	    -55.94619371	     -1.59045183	     -6.67988095	     53.81185481	     11.69103854	    -40.00083920	     38.87651556	     73.77235329	      0.00000000	      0.00000000	     59.59494501	     15.41643750	    -38.67204747	     33.08309809	      3.80909565	      0.00000000	      0.00000000
